<svg t="1568453116317" class="icon" viewBox="0 0 1024 1024" version="1.1" xmlns="http://www.w3.org/2000/svg" p-id="55131" width="48" height="48"><path d="M85.333333 213.333333a42.666667 42.666667 0 1 1 0-85.333333h853.333334a42.666667 42.666667 0 1 1 0 85.333333H85.333333z m128 234.666667a42.666667 42.666667 0 1 1 0-85.333333h597.333334a42.666667 42.666667 0 1 1 0 85.333333H213.333333z m128 234.666667a42.666667 42.666667 0 1 1 0-85.333334h341.333334a42.666667 42.666667 0 1 1 0 85.333334H341.333333z m128 213.333333a42.666667 42.666667 0 1 1 0-85.333333h85.333334a42.666667 42.666667 0 1 1 0 85.333333h-85.333334z" p-id="55132" fill="#707070"></path></svg>