<?xml version="1.0" standalone="no"?><!DOCTYPE svg PUBLIC "-//W3C//DTD SVG 1.1//EN" "http://www.w3.org/Graphics/SVG/1.1/DTD/svg11.dtd"><svg t="1568439229612" class="icon" viewBox="0 0 1024 1024" version="1.1" xmlns="http://www.w3.org/2000/svg" p-id="39765" xmlns:xlink="http://www.w3.org/1999/xlink" width="48" height="48"><defs><style type="text/css"></style></defs><path d="M256 798.293333C175.957333 726.677333 128 623.573333 128 512c0-212.074667 171.925333-384 384-384V42.666667C252.8 42.666667 42.666667 252.8 42.666667 512c0 131.946667 54.933333 254.293333 147.136 341.333333H42.666667v85.333334h298.666666V640h-85.333333v158.293333z m512-572.586666c80.042667 71.594667 128 174.72 128 286.293333 0 212.074667-171.925333 384-384 384v85.333333c259.2 0 469.333333-210.133333 469.333333-469.333333 0-131.946667-54.933333-254.293333-147.136-341.333333H981.333333V85.333333H682.666667v298.666667h85.333333v-158.293333z" p-id="39766" fill="#707070"></path></svg>