<?xml version="1.0" standalone="no"?><!DOCTYPE svg PUBLIC "-//W3C//DTD SVG 1.1//EN" "http://www.w3.org/Graphics/SVG/1.1/DTD/svg11.dtd"><svg t="1568450355719" class="icon" viewBox="0 0 1024 1024" version="1.1" xmlns="http://www.w3.org/2000/svg" p-id="42420" xmlns:xlink="http://www.w3.org/1999/xlink" width="48" height="48"><defs><style type="text/css"></style></defs><path d="M292.569966 0.002194c9.727951 0 18.285623 8.557671 18.285623 18.285623v841.138652a18.139338 18.139338 0 0 1-9.727952 16.018205l-274.284343 146.284983a16.091348 16.091348 0 0 1-8.557671 2.303989 18.79762 18.79762 0 0 1-18.285623-18.285623v-841.138652c0-6.838823 3.986266-13.129077 9.727951-16.018205l274.284343-146.284983A16.091348 16.091348 0 0 1 292.569966 0.002194z m713.139291 0c9.727951 0 18.285623 8.557671 18.285623 18.285623v841.138652a18.139338 18.139338 0 0 1-9.727951 16.018205l-274.284343 146.284983a16.091348 16.091348 0 0 1-8.557672 2.303989 18.79762 18.79762 0 0 1-18.285623-18.285623v-841.138652c0-6.838823 3.986266-13.129077 9.727952-16.018205l274.284343-146.284983A16.091348 16.091348 0 0 1 1005.709257 0.002194zM365.712457 0.002194c2.852557 0 5.705114 0.58514 8.009103 1.718849l292.569966 146.284983a19.09019 19.09019 0 0 1 10.27652 16.566774v841.138651c0 9.727951-8.557671 18.285623-18.285623 18.285623a18.50505 18.50505 0 0 1-8.009103-1.718848l-292.569966-146.284983A19.09019 19.09019 0 0 1 347.426834 859.426469V18.287817c0-9.727951 8.557671-18.285623 18.285623-18.285623z" fill="#FFFFFF" p-id="42421"></path></svg>