<svg t="1568453219050" class="icon" viewBox="0 0 1024 1024" version="1.1" xmlns="http://www.w3.org/2000/svg" p-id="62916" width="48" height="48"><path d="M791.6 134.2c53.9 0 97.8 43.9 97.8 97.8v559.2c0 53.9-43.9 97.8-97.8 97.8H232.4c-53.9 0-97.8-43.9-97.8-97.8V232c0-53.9 43.9-97.8 97.8-97.8h559.2m0-70H232.4c-92.7 0-167.8 75.1-167.8 167.8v559.2c0 92.6 75.1 167.8 167.8 167.8h205.8v0.9h126.7v-0.9h226.7c92.7 0 167.8-75.2 167.8-167.8V232c-0.1-92.7-75.2-167.8-167.8-167.8z" p-id="62917" fill="#707070"></path><path d="M284.8 306h119.8v76.4H284.8zM451.9 306h287.2v76.4H451.9zM284.8 473.8h119.8v76.4H284.8zM451.9 473.8h287.2v76.4H451.9zM284.8 641.5h119.8v76.4H284.8zM451.9 641.5h287.2v76.4H451.9z" p-id="62918" fill="#707070"></path></svg>